<?xml version="1.0" encoding="UTF-8"?>
<svg id="Layer_1" data-name="Layer 1" xmlns="http://www.w3.org/2000/svg" viewBox="0 0 1800 499.76">
  <defs>
    <style>
      .cls-1 {
        fill: #f7f4ef;
      }
    </style>
  </defs>
  <g>
    <g id="GyJYpw">
      <g>
        <path class="cls-1" d="M407.24,121.23v257.31h-107.1v-25.08h9.53v13.74c29.42-7.52,52.55-37.1,39.42-67.78-6.85-15.99-21.78-26.39-37.29-33.05-9.4-4.03-19.38-6.63-28.9-10.13V121.23h124.34ZM398.62,140.74l-15.2-1.36c-29.77-.37-69.36,16.36-67.41,51.53,1.68,30.18,32.56,38.51,55.62,46.94,9.89,3.62,19.31,7.89,27.22,14.99l-.22-112.1Z"/>
        <path class="cls-1" d="M276.09,121.23l-.45,17.7h-9.53v-7.26h-103.47v236.43h115.04l.68-1.13c.52-7.1.76-13.58-1.92-20.31-4.88-12.23-19.64-16.33-30.3-22.12v-15.43h45.83v69.43h-140.68l.68-257.31h124.12Z"/>
        <path class="cls-1" d="M238.88,242.17l-52.19.23c-.47-15.2,1.6-30.7,7.78-44.64,8.74-19.71,24.79-35.48,44.41-44.31v88.72Z"/>
        <path class="cls-1" d="M275.18,145.28v108.91l-28.38-7.7-.14-95.47c.46-1.36,9.73-3.4,11.64-3.79,5.51-1.13,11.25-1.97,16.88-1.96Z"/>
        <path class="cls-1" d="M238.88,250.11v51.28h-27.91c-13.95-13.68-22.15-32.23-23.83-51.73l51.73.45Z"/>
        <polygon class="cls-1" points="292.88 266.9 292.88 301.39 246.14 301.39 246.14 254.19 292.88 266.9"/>
        <path class="cls-1" d="M238.42,309.1v11.35c-6.55-3.01-13.13-6.62-18.61-11.35h18.61Z"/>
      </g>
    </g>
    <g>
      <g>
        <path class="cls-1" d="M489.62,218.47c0-25.58,19.37-42.83,44.2-42.83,20.61,0,31.29,11.3,36.75,22.22l-18.38,8.69c-2.73-6.58-9.81-12.04-18.38-12.04-12.91,0-22.47,10.43-22.47,23.96s9.56,23.96,22.47,23.96c8.57,0,15.64-5.46,18.38-12.04l18.38,8.69c-5.34,10.68-16.14,22.22-36.75,22.22-24.83,0-44.2-17.38-44.2-42.84Z"/>
        <path class="cls-1" d="M619.86,175.63c25.33,0,44.2,17.63,44.2,42.83s-18.87,42.84-44.2,42.84-44.32-17.63-44.32-42.84,19-42.83,44.32-42.83ZM619.86,194.5c-13.78,0-22.6,10.43-22.6,23.96s8.81,23.96,22.6,23.96,22.47-10.55,22.47-23.96-8.81-23.96-22.47-23.96Z"/>
        <path class="cls-1" d="M731.23,259.81l-35.01-50.04v50.04h-21.36v-82.82h21.98l33.52,47.68v-47.68h21.48v82.82h-20.61Z"/>
        <path class="cls-1" d="M785.24,259.81v-64.19h-23.22v-18.62h67.67v18.62h-23.09v64.19h-21.35Z"/>
        <path class="cls-1" d="M886.05,259.81l-13.91-28.06h-10.93v28.06h-21.36v-82.82h41.47c18.38,0,28.81,12.17,28.81,27.56,0,14.4-8.82,22.1-16.51,24.83l16.89,30.42h-24.46ZM878.11,195h-16.89v18.62h16.89c5.59,0,10.31-3.6,10.31-9.31s-4.72-9.31-10.31-9.31Z"/>
        <path class="cls-1" d="M979.17,259.81l-4.22-12.54h-34.39l-4.22,12.54h-23.22l31.16-82.82h26.82l31.29,82.82h-23.22ZM957.69,195.62l-11.55,33.65h23.22l-11.67-33.65Z"/>
        <path class="cls-1" d="M1000.27,218.47c0-25.58,19.37-42.83,44.2-42.83,20.61,0,31.29,11.3,36.75,22.22l-18.38,8.69c-2.73-6.58-9.81-12.04-18.38-12.04-12.91,0-22.47,10.43-22.47,23.96s9.56,23.96,22.47,23.96c8.57,0,15.64-5.46,18.38-12.04l18.38,8.69c-5.34,10.68-16.14,22.22-36.75,22.22-24.83,0-44.2-17.38-44.2-42.84Z"/>
        <path class="cls-1" d="M1108.91,259.81v-64.19h-23.22v-18.62h67.67v18.62h-23.09v64.19h-21.35Z"/>
      </g>
      <g>
        <path class="cls-1" d="M1181.51,241.81c5.46,6.08,14.4,11.79,26.07,11.79,14.77,0,19.49-7.95,19.49-14.28,0-9.93-10.06-12.66-20.98-15.64-13.28-3.48-28.06-7.2-28.06-23.47,0-13.66,12.17-22.97,28.43-22.97,12.66,0,22.47,4.22,29.43,11.55l-6.21,7.57c-6.21-6.83-14.9-9.93-23.96-9.93-9.93,0-17.01,5.34-17.01,13.16,0,8.32,9.56,10.8,20.11,13.66,13.53,3.6,28.93,7.82,28.93,25.2,0,12.04-8.19,24.34-30.54,24.34-14.4,0-24.96-5.46-31.78-13.16l6.08-7.82Z"/>
        <path class="cls-1" d="M1290.89,177.12c24.46,0,41.1,18.38,41.1,42.83s-16.64,42.84-41.1,42.84-41.1-18.38-41.1-42.84,16.51-42.83,41.1-42.83ZM1290.89,186.31c-18.62,0-30.42,14.28-30.42,33.65s11.8,33.65,30.42,33.65,30.42-14.4,30.42-33.65-11.92-33.65-30.42-33.65Z"/>
        <path class="cls-1" d="M1348.13,178.49h10.31v50.41c0,15.15,8.2,24.71,23.47,24.71s23.47-9.56,23.47-24.71v-50.41h10.31v50.53c0,20.61-11.3,33.77-33.77,33.77s-33.77-13.29-33.77-33.65v-50.66Z"/>
        <path class="cls-1" d="M1482.96,261.3l-21.11-32.9h-16.51v32.9h-10.31v-82.81h33.28c15.15,0,25.95,9.68,25.95,24.96s-10.18,23.09-21.48,24.09l22.35,33.77h-12.17ZM1467.07,187.67h-21.73v31.66h21.73c9.81,0,16.51-6.58,16.51-15.89s-6.7-15.77-16.51-15.77Z"/>
        <path class="cls-1" d="M1507.17,219.96c0-25.45,18.75-42.83,42.22-42.83,15.02,0,25.2,7.08,31.78,16.39l-8.69,4.84c-4.72-6.95-13.28-12.04-23.09-12.04-17.76,0-31.54,13.91-31.54,33.65s13.78,33.65,31.54,33.65c9.81,0,18.38-4.97,23.09-12.04l8.82,4.84c-6.95,9.44-16.89,16.39-31.91,16.39-23.47,0-42.22-17.38-42.22-42.84Z"/>
        <path class="cls-1" d="M1594.45,261.3v-82.81h54.26v9.19h-43.95v26.69h43.08v9.19h-43.08v28.56h43.95v9.19h-54.26Z"/>
      </g>
    </g>
  </g>
  <g>
    <path class="cls-1" d="M590.15,344.12v-42.29h5.26v42.29h-5.26Z"/>
    <path class="cls-1" d="M635.23,344.12l-24.66-34.11v34.11h-5.26v-42.29h5.39l24.35,33.41v-33.41h5.26v42.29h-5.07Z"/>
    <path class="cls-1" d="M660.65,344.12v-37.6h-13.38v-4.69h32.08v4.69h-13.44v37.6h-5.26Z"/>
    <path class="cls-1" d="M686.33,344.12v-42.29h27.71v4.69h-22.44v13.63h22v4.69h-22v14.58h22.44v4.69h-27.71Z"/>
    <path class="cls-1" d="M746.87,344.12l-10.78-16.8h-8.43v16.8h-5.26v-42.29h16.99c7.73,0,13.25,4.95,13.25,12.74s-5.2,11.79-10.97,12.3l11.41,17.25h-6.21ZM738.76,306.52h-11.1v16.17h11.1c5.01,0,8.43-3.36,8.43-8.12s-3.42-8.05-8.43-8.05Z"/>
    <path class="cls-1" d="M760.95,344.12v-42.29h5.26v42.29h-5.26Z"/>
    <path class="cls-1" d="M795.37,301.13c12.49,0,20.99,9.38,20.99,21.87s-8.5,21.87-20.99,21.87-20.99-9.38-20.99-21.87,8.43-21.87,20.99-21.87ZM795.37,305.82c-9.51,0-15.53,7.29-15.53,17.18s6.02,17.18,15.53,17.18,15.53-7.35,15.53-17.18-6.09-17.18-15.53-17.18Z"/>
    <path class="cls-1" d="M849.07,344.12l-10.78-16.8h-8.43v16.8h-5.26v-42.29h16.99c7.73,0,13.25,4.95,13.25,12.74s-5.2,11.79-10.97,12.3l11.41,17.25h-6.21ZM840.96,306.52h-11.09v16.17h11.09c5.01,0,8.43-3.36,8.43-8.12s-3.42-8.05-8.43-8.05Z"/>
    <path class="cls-1" d="M879.51,344.12v-42.29h14.46c13.12,0,21.68,9.19,21.68,21.18s-8.56,21.11-21.68,21.11h-14.46ZM884.77,339.43h9.19c10.27,0,16.23-7.35,16.23-16.42s-5.77-16.48-16.23-16.48h-9.19v32.91Z"/>
    <path class="cls-1" d="M923.89,344.12v-42.29h27.71v4.69h-22.44v13.63h22v4.69h-22v14.58h22.44v4.69h-27.71Z"/>
    <path class="cls-1" d="M960.53,334.16c2.79,3.11,7.35,6.02,13.31,6.02,7.54,0,9.95-4.06,9.95-7.29,0-5.07-5.14-6.47-10.71-7.99-6.78-1.78-14.33-3.68-14.33-11.98,0-6.97,6.21-11.73,14.52-11.73,6.47,0,11.48,2.16,15.03,5.9l-3.17,3.87c-3.17-3.49-7.61-5.07-12.24-5.07-5.07,0-8.69,2.73-8.69,6.72,0,4.25,4.88,5.52,10.27,6.97,6.91,1.84,14.77,3.99,14.77,12.87,0,6.15-4.18,12.43-15.6,12.43-7.35,0-12.74-2.79-16.23-6.72l3.11-3.99Z"/>
    <path class="cls-1" d="M997.11,344.12v-42.29h5.26v42.29h-5.26Z"/>
    <path class="cls-1" d="M1032.3,301.13c7.48,0,12.68,3.3,16.42,7.92l-4.18,2.6c-2.66-3.42-7.16-5.83-12.24-5.83-9.26,0-16.29,7.1-16.29,17.18s7.04,17.25,16.29,17.25c5.07,0,9.26-2.47,11.35-4.57v-8.62h-14.52v-4.69h19.78v15.28c-3.93,4.38-9.7,7.29-16.61,7.29-12.05,0-21.75-8.81-21.75-21.94s9.7-21.87,21.75-21.87Z"/>
    <path class="cls-1" d="M1087.39,344.12l-24.66-34.11v34.11h-5.26v-42.29h5.39l24.35,33.41v-33.41h5.26v42.29h-5.07Z"/>
    <path class="cls-1" d="M1118.33,328.78c0-3.74,3.11-6.85,6.85-6.85s6.85,3.11,6.85,6.85-3.11,6.78-6.85,6.78-6.85-3.11-6.85-6.78Z"/>
    <path class="cls-1" d="M1157.77,344.12v-42.29h27.71v4.69h-22.44v13.63h22v4.69h-22v19.27h-5.26Z"/>
    <path class="cls-1" d="M1192.64,301.83h5.26v25.74c0,7.74,4.18,12.62,11.98,12.62s11.98-4.88,11.98-12.62v-25.74h5.26v25.8c0,10.52-5.77,17.25-17.25,17.25s-17.24-6.78-17.24-17.18v-25.87Z"/>
    <path class="cls-1" d="M1261.49,344.12l-10.78-16.8h-8.43v16.8h-5.26v-42.29h16.99c7.73,0,13.25,4.95,13.25,12.74s-5.2,11.79-10.97,12.3l11.41,17.25h-6.21ZM1253.37,306.52h-11.09v16.17h11.09c5.01,0,8.43-3.36,8.43-8.12s-3.42-8.05-8.43-8.05Z"/>
    <path class="cls-1" d="M1305.49,344.12l-24.66-34.11v34.11h-5.26v-42.29h5.39l24.35,33.41v-33.41h5.26v42.29h-5.07Z"/>
    <path class="cls-1" d="M1320.45,344.12v-42.29h5.26v42.29h-5.26Z"/>
    <path class="cls-1" d="M1336.17,334.16c2.79,3.11,7.35,6.02,13.31,6.02,7.54,0,9.95-4.06,9.95-7.29,0-5.07-5.14-6.47-10.71-7.99-6.78-1.78-14.33-3.68-14.33-11.98,0-6.97,6.21-11.73,14.52-11.73,6.47,0,11.48,2.16,15.03,5.9l-3.17,3.87c-3.17-3.49-7.61-5.07-12.24-5.07-5.07,0-8.69,2.73-8.69,6.72,0,4.25,4.88,5.52,10.27,6.97,6.91,1.84,14.77,3.99,14.77,12.87,0,6.15-4.18,12.43-15.6,12.43-7.35,0-12.74-2.79-16.23-6.72l3.11-3.99Z"/>
    <path class="cls-1" d="M1402.75,344.12v-19.4h-24.73v19.4h-5.26v-42.29h5.26v18.2h24.73v-18.2h5.26v42.29h-5.26Z"/>
    <path class="cls-1" d="M1417.9,344.12v-42.29h5.26v42.29h-5.26Z"/>
    <path class="cls-1" d="M1462.97,344.12l-24.66-34.11v34.11h-5.26v-42.29h5.39l24.35,33.41v-33.41h5.26v42.29h-5.07Z"/>
    <path class="cls-1" d="M1497.97,301.13c7.48,0,12.68,3.3,16.42,7.92l-4.18,2.6c-2.66-3.42-7.16-5.83-12.24-5.83-9.26,0-16.29,7.1-16.29,17.18s7.04,17.25,16.29,17.25c5.07,0,9.26-2.47,11.35-4.57v-8.62h-14.52v-4.69h19.78v15.28c-3.93,4.38-9.7,7.29-16.61,7.29-12.05,0-21.75-8.81-21.75-21.94s9.7-21.87,21.75-21.87Z"/>
    <path class="cls-1" d="M1523.71,334.16c2.79,3.11,7.35,6.02,13.31,6.02,7.54,0,9.95-4.06,9.95-7.29,0-5.07-5.14-6.47-10.71-7.99-6.78-1.78-14.33-3.68-14.33-11.98,0-6.97,6.21-11.73,14.52-11.73,6.47,0,11.48,2.16,15.03,5.9l-3.17,3.87c-3.17-3.49-7.61-5.07-12.24-5.07-5.07,0-8.69,2.73-8.69,6.72,0,4.25,4.88,5.52,10.27,6.97,6.91,1.84,14.77,3.99,14.77,12.87,0,6.15-4.18,12.43-15.6,12.43-7.35,0-12.74-2.79-16.23-6.72l3.11-3.99Z"/>
  </g>
</svg>